<svg xmlns="http://www.w3.org/2000/svg" xmlns:xlink="http://www.w3.org/1999/xlink" width="500" zoomAndPan="magnify" viewBox="0 0 375 374.999991" height="500" preserveAspectRatio="xMidYMid meet" version="1.0"><path fill="#7367f0" d="M 267.292969 187.484375 C 267.292969 208.816406 258.953125 228.863281 243.898438 243.945312 C 228.832031 259.042969 208.753906 267.363281 187.414062 267.363281 C 166.074219 267.363281 146.015625 259.050781 130.945312 243.960938 C 115.894531 228.886719 107.597656 208.839844 107.597656 187.507812 C 107.597656 166.175781 115.824219 146.121094 130.898438 131.046875 C 138.578125 123.367188 147.574219 117.449219 157.25 113.484375 L 157.25 187.515625 C 157.25 204.082031 170.769531 217.558594 187.308594 217.558594 C 203.835938 217.558594 217.359375 204.429688 217.367188 187.5 L 217.414062 187.5 L 217.414062 53.074219 C 207.738281 50.9375 197.828125 49.804688 187.570312 49.804688 C 111.652344 49.804688 49.9375 111.570312 49.9375 187.476562 L 49.9375 314.746094 C 34.820312 298.761719 23.300781 280.539062 14.804688 260.46875 C 5.03125 237.335938 0.0390625 212.78125 0.0390625 187.484375 C 0.0390625 162.191406 4.988281 137.632812 14.769531 114.5 C 24.210938 92.175781 37.714844 72.121094 54.929688 54.914062 C 72.136719 37.707031 92.183594 24.1875 114.507812 14.746094 C 137.640625 4.964844 162.191406 0 187.492188 0 C 197.589844 0 207.5625 0.792969 217.375 2.363281 C 232.15625 4.726562 246.632812 8.863281 260.53125 14.746094 C 262.792969 15.699219 264.878906 16.699219 267.292969 17.738281 Z M 187.429688 374.960938 C 212.726562 374.960938 237.335938 369.996094 260.46875 360.21875 C 282.792969 350.773438 302.839844 337.261719 320.046875 320.046875 C 337.253906 302.839844 350.765625 282.792969 360.210938 260.460938 C 369.988281 237.328125 374.9375 212.78125 374.9375 187.476562 C 374.9375 162.175781 369.945312 137.625 360.164062 114.492188 C 351.675781 94.421875 340.15625 76.191406 325.035156 60.21875 L 325.035156 187.476562 C 325.035156 263.394531 263.222656 325.148438 187.316406 325.148438 C 157.550781 325.148438 130.351562 315.652344 107.375 299.539062 L 107.375 357.125 C 109.792969 358.191406 112.0625 359.222656 114.394531 360.210938 C 137.527344 369.996094 162.136719 374.960938 187.429688 374.960938 Z M 187.429688 374.960938 " fill-opacity="1" fill-rule="nonzero"/></svg>